[IMG]http://i1022.photobucket.com/albums/af345/bhoottt/1_1000-2.jpg[/IMG]

[IMG]http://i1022.photobucket.com/albums/af345/bhoottt/WWE-MondayNightRaw-4thOCT2010-Xvid-thedesiaddacom_20101005-11232781.jp
g[/IMG]
[IMG]http://i1022.photobucket.com/albums/af345/bhoottt/WWE-MondayNightRaw-4thOCT2010-Xvid-thedesiaddacom_20101005-11232332.jp
g[/IMG]
[IMG]http://i1022.photobucket.com/albums/af345/bhoottt/WWE-MondayNightRaw-4thOCT2010-Xvid-thedesiaddacom_20101005-11251285.jp
g[/IMG]
[IMG]http://i1022.photobucket.com/albums/af345/bhoottt/WWE-MondayNightRaw-4thOCT2010-Xvid-thedesiaddacom_20101005-11244692.jp
g[/IMG]
[IMG]http://i1022.photobucket.com/albums/af345/bhoottt/WWE-MondayNightRaw-4thOCT2010-Xvid-thedesiaddacom_20101005-11240832.jp
g[/IMG]
[IMG]http://i1022.photobucket.com/albums/af345/bhoottt/WWE-MondayNightRaw-4thOCT2010-Xvid-thedesiaddacom_20101005-11254146.jp
g[/IMG]



Video
ID                               : 0
Format                           : MPEG-4 Visual
Format profile                   : Advanced Simple@L5
Format settings, BVOP            : Yes
Format settings, QPel            : No
Format settings, GMC             : No warppoints
Format settings, Matrix          : Default (H.263)
Codec ID                         : XVID
Codec ID/Hint                    : XviD
Duration                         : 1h 32mn
Bit rate                         : 1 022 Kbps
Width                            : 640 pixels
Height                           : 368 pixels
Display aspect ratio             : 16:9
Frame rate                       : 25.000 fps
Resolution                       : 8 bits
Colorimetry                      : 4:2:0
Scan type                        : Progressive
Bits/(Pixel*Frame)               : 0.174
Stream size                      : 678 MiB (88%)
Writing library                  : XviD 1.1.2 (UTC 2006-11-01)

Audio
ID                               : 1
Format                           : MPEG Audio
Format version                   : Version 1
Format profile                   : Layer 3
Mode                             : Joint stereo
Format_Settings_ModeExtension    : MS Stereo
Codec ID                         : 55
Codec ID/Hint                    : MP3
Duration                         : 1h 32mn
Bit rate mode                    : Constant
Bit rate                         : 128 Kbps
Channel(s)                       : 2 channels
Sampling rate                    : 44.1 KHz
Stream size                      : 84.9 MiB (11%)
